STARTFONT 2.1
FONT -FontForge-Source Sans Pro-Bold-R-Normal-SansPro--75-720-75-75-P-384-ISO10646-1
SIZE 72 75 75
FONTBOUNDINGBOX 68 81 -4 -19
COMMENT "Generated by fontforge, http://fontforge.sourceforge.net"
COMMENT "(c) 2010 - 2018 Adobe Systems Incorporated (http://www.adobe.com/), with Reserved Font Name `Source'."
STARTPROPERTIES 40
FOUNDRY "FontForge"
FAMILY_NAME "Source Sans Pro"
WEIGHT_NAME "Bold"
SLANT "R"
SETWIDTH_NAME "Normal"
ADD_STYLE_NAME "SansPro"
PIXEL_SIZE 75
POINT_SIZE 720
RESOLUTION_X 75
RESOLUTION_Y 75
SPACING "P"
AVERAGE_WIDTH 384
CHARSET_REGISTRY "ISO10646"
CHARSET_ENCODING "1"
FONTNAME_REGISTRY ""
CHARSET_COLLECTIONS "ISO10646-1"
FONT_NAME "SourceSansPro-Bold"
FACE_NAME "Source Sans Pro Bold"
COPYRIGHT "(c) 2010 - 2018 Adobe Systems Incorporated (http://www.adobe.com/), with Reserved Font Name `Source'."
FONT_VERSION "2.045;hotconv 1.0.109;makeotfexe 2.5.65596"
FONT_ASCENT 56
FONT_DESCENT 19
UNDERLINE_POSITION -6
UNDERLINE_THICKNESS 4
X_HEIGHT 36
CAP_HEIGHT 48
RAW_ASCENT 750
RAW_DESCENT 250
NORM_SPACE 15
RELATIVE_WEIGHT 70
RELATIVE_SETWIDTH 50
SUPERSCRIPT_X 0
SUPERSCRIPT_Y 26
SUPERSCRIPT_SIZE 45
SUBSCRIPT_X 0
SUBSCRIPT_Y 5
SUBSCRIPT_SIZE 45
FIGURE_WIDTH 40
AVG_LOWERCASE_WIDTH 381
AVG_UPPERCASE_WIDTH 448
ENDPROPERTIES
CHARS 95
STARTCHAR space
ENCODING 32
SWIDTH 200 0
DWIDTH 15 0
BBX 1 1 0 0
BITMAP
00
ENDCHAR
STARTCHAR exclam
ENCODING 33
SWIDTH 340 0
DWIDTH 26 0
BBX 13 51 6 -1
BITMAP
7FF0
7FF0
7FF0
7FF0
7FF0
7FF0
7FF0
7FF0
3FF0
3FF0
3FF0
3FF0
3FF0
3FF0
3FF0
3FF0
3FE0
3FE0
3FE0
3FE0
3FE0
3FE0
3FE0
1FE0
1FE0
1FE0
1FE0
1FE0
1FE0
1FE0
1FE0
1FC0
1FC0
0000
0000
0000
0000
0F80
1FE0
3FF0
7FF8
FFF8
FFF8
FFF8
FFF8
FFF8
FFF8
7FF8
3FF0
1FE0
0780
ENDCHAR
STARTCHAR quotedbl
ENCODING 34
SWIDTH 537 0
DWIDTH 40 0
BBX 29 24 6 27
BITMAP
FFE03FF8
FFE03FF8
FFE03FF0
FFE03FF0
FFE03FF0
FFE03FF0
FFE03FF0
FFE03FF0
FFC03FF0
FFC03FF0
FFC03FF0
FFC03FF0
7FC03FF0
7FC03FF0
7FC01FE0
7FC01FE0
7F801FE0
7F801FE0
7F801FE0
3F801FE0
3F801FE0
3F800FC0
3F800FC0
3F000FC0
ENDCHAR
STARTCHAR numbersign
ENCODING 35
SWIDTH 528 0
DWIDTH 40 0
BBX 34 49 3 0
BITMAP
007F00FC00
007F01FC00
007E01FC00
007E01FC00
007E01F800
007E01F800
007E01F800
007E01F800
00FE01F800
00FE03F800
00FE03F800
00FC03F800
00FC03F000
7FFFFFFFC0
7FFFFFFFC0
7FFFFFFFC0
7FFFFFFFC0
7FFFFFFFC0
7FFFFFFFC0
7FFFFFFFC0
01F807E000
01F807E000
01F807E000
03F807E000
03F807E000
03F80FE000
03F80FE000
03F00FE000
FFFFFFFF80
FFFFFFFF80
FFFFFFFF80
FFFFFFFF80
FFFFFFFF80
FFFFFFFF80
FFFFFFFF80
07E01FC000
07E01FC000
07E01F8000
07E01F8000
07E01F8000
0FE01F8000
0FE03F8000
0FE03F8000
0FE03F8000
0FC03F8000
0FC03F0000
0FC03F0000
0FC03F0000
0FC03F0000
ENDCHAR
STARTCHAR dollar
ENCODING 36
SWIDTH 528 0
DWIDTH 40 0
BBX 32 64 3 -8
BITMAP
0007F000
0007F000
0007F000
0007F000
0007F000
0007F000
0007F000
0007F000
001FFF00
007FFFC0
01FFFFF0
03FFFFF8
07FFFFFC
0FFFFFFE
1FFFFFFE
1FFFFFFC
1FFF9FF8
3FFC03F0
3FF800F0
3FF00060
3FF00000
3FF00000
3FF80000
3FF80000
3FFC0000
3FFE0000
1FFF8000
1FFFE000
0FFFF800
07FFFE00
03FFFF80
01FFFFE0
00FFFFF0
003FFFF8
000FFFFC
0003FFFC
0000FFFE
00007FFE
00001FFF
00000FFF
000007FF
000007FF
000003FF
000007FF
0C0007FF
1F0007FF
1F800FFF
3FF03FFE
3FFFFFFE
7FFFFFFC
FFFFFFFC
FFFFFFF8
3FFFFFF0
1FFFFFE0
07FFFFC0
00FFFE00
001FF000
0007F000
0007F000
0007F000
0007F000
0007F000
0007F000
0007F000
ENDCHAR
STARTCHAR percent
ENCODING 37
SWIDTH 857 0
DWIDTH 64 0
BBX 60 51 2 -1
BITMAP
007E000000FC0000
01FFC00001FC0000
07FFE00001F80000
0FFFF00003F80000
1FFFF80003F00000
3FFFFC0007F00000
3FE7FC0007E00000
7FC1FE000FE00000
7F81FE000FC00000
7F00FF001FC00000
FF00FF001F800000
FF00FF003F800000
FF00FF003F000000
FF007F007F000000
FF007F007E000000
FF007F00FE000000
FF007F00FC000000
FF007F01FC000000
FF00FF01F8000000
FF00FF03F0000000
FF00FF03F00FF000
7F00FF07E03FFC00
7F80FE07E07FFF00
7F81FE0FC0FFFF80
3FC3FE1FC1FFFF80
3FFFFC1F83FFFFC0
1FFFF83F83FC3FE0
0FFFF83F07F81FE0
07FFF07F07F80FE0
03FFC07E07F00FF0
00FF00FE0FF00FF0
000000FC0FF00FF0
000001FC0FF007F0
000001F80FF007F0
000003F80FF007F0
000003F00FF007F0
000007F00FF007F0
000007E00FF007F0
00000FE00FF00FF0
00000FC00FF00FF0
00001FC007F00FF0
00001F8007F00FF0
00003F8007F81FE0
00003F0007FC1FE0
00007E0003FE7FC0
00007E0001FFFFC0
0000FC0001FFFF80
0000FC0000FFFF00
0001F800007FFE00
0003F800001FFC00
0003F0000007E000
ENDCHAR
STARTCHAR ampersand
ENCODING 38
SWIDTH 667 0
DWIDTH 50 0
BBX 47 51 2 -1
BITMAP
00007C000000
0007FF800000
001FFFE00000
003FFFF00000
007FFFF80000
00FFFFFC0000
01FFFFFC0000
01FFFFFE0000
01FF83FE0000
03FF03FE0000
03FE01FE0000
03FE01FE0000
03FE01FE0000
03FE03FE0000
03FE03FE0000
03FE07FC0000
03FE0FFC0000
03FF3FF80000
01FF7FF80000
01FFFFF00000
00FFFFE00000
00FFFFC00000
00FFFF000FFC
00FFFE000FFC
01FFFC000FFC
03FFF8001FF8
07FFFC001FF8
0FFFFE001FF8
1FFFFF003FF0
3FFFFF803FF0
7FFFFFC07FE0
7FF3FFE0FFE0
FFF1FFF8FFC0
FFE0FFFDFFC0
FFE07FFFFF80
FFC03FFFFF80
FFC01FFFFF00
FFC00FFFFE00
FFE007FFFE00
FFE003FFFE00
FFF000FFFFC0
7FF803FFFFF8
7FFFFFFFFFFE
7FFFFFFFFFFC
3FFFFFFFFFFC
1FFFFFFFFFFC
0FFFFFFEFFF8
07FFFFF83FF8
03FFFFE007F8
00FFFF8001F0
001FF8000030
ENDCHAR
STARTCHAR quotesingle
ENCODING 39
SWIDTH 300 0
DWIDTH 23 0
BBX 11 24 6 27
BITMAP
FFE0
FFE0
FFE0
FFE0
FFE0
FFE0
FFE0
FFE0
FFC0
FFC0
FFC0
FFC0
7FC0
7FC0
7FC0
7FC0
7F80
7F80
7F80
3F80
3F80
3F80
3F80
3F00
ENDCHAR
STARTCHAR parenleft
ENCODING 40
SWIDTH 344 0
DWIDTH 26 0
BBX 17 68 5 -13
BITMAP
003000
007C00
007F80
00FF80
00FF00
01FF00
01FE00
03FE00
03FC00
07FC00
07FC00
07F800
0FF800
0FF000
1FF000
1FF000
1FF000
3FE000
3FE000
3FE000
3FE000
3FE000
7FC000
7FC000
7FC000
7FC000
7FC000
7FC000
7FC000
7F8000
FF8000
FF8000
FF8000
FF8000
FF8000
FF8000
FF8000
FF8000
7F8000
7FC000
7FC000
7FC000
7FC000
7FC000
7FC000
7FC000
7FC000
3FE000
3FE000
3FE000
3FE000
1FF000
1FF000
1FF000
0FF000
0FF800
0FF800
07F800
07FC00
03FC00
03FE00
01FE00
01FF00
00FF00
00FF80
007F80
007E00
003800
ENDCHAR
STARTCHAR parenright
ENCODING 41
SWIDTH 344 0
DWIDTH 26 0
BBX 16 68 4 -13
BITMAP
0600
1E00
FF00
FF80
7F80
7FC0
3FC0
3FE0
3FE0
1FE0
1FF0
0FF0
0FF8
0FF8
07F8
07FC
07FC
03FC
03FE
03FE
03FE
03FE
01FE
01FF
01FF
01FF
01FF
01FF
01FF
01FF
01FF
01FF
00FF
00FF
00FF
00FF
01FF
01FF
01FF
01FF
01FF
01FF
01FF
01FF
01FF
01FE
03FE
03FE
03FE
03FE
03FC
07FC
07FC
07F8
0FF8
0FF8
0FF0
1FF0
1FF0
1FE0
3FE0
3FC0
7FC0
7F80
FF80
FF00
3F00
0E00
ENDCHAR
STARTCHAR asterisk
ENCODING 42
SWIDTH 457 0
DWIDTH 34 0
BBX 28 27 3 26
BITMAP
001F8000
001F8000
001F8000
001F8000
001FC000
001FC000
003FC000
7C3FC1E0
7FFFFFE0
7FFFFFF0
FFFFFFF0
FFFFFFF0
7FFFFFE0
1FFFFF80
07FFFE00
01FFF800
01FFF800
01FFF800
03FFFC00
03FFFC00
07FFFE00
07F9FF00
0FF0FF00
0FE07F80
07C03E00
03801C00
00000800
ENDCHAR
STARTCHAR plus
ENCODING 43
SWIDTH 528 0
DWIDTH 40 0
BBX 34 35 3 7
BITMAP
0007F80000
0007F80000
0007F80000
0007F80000
0007F80000
0007F80000
0007F80000
0007F80000
0007F80000
0007F80000
0007F80000
0007F80000
0007F80000
FFFFFFFFC0
FFFFFFFFC0
FFFFFFFFC0
FFFFFFFFC0
FFFFFFFFC0
FFFFFFFFC0
FFFFFFFFC0
FFFFFFFFC0
0007F80000
0007F80000
0007F80000
0007F80000
0007F80000
0007F80000
0007F80000
0007F80000
0007F80000
0007F80000
0007F80000
0007F80000
0007F80000
0007F80000
ENDCHAR
STARTCHAR comma
ENCODING 44
SWIDTH 300 0
DWIDTH 23 0
BBX 15 27 4 -14
BITMAP
07C0
1FF0
3FF8
7FFC
7FFC
7FFE
7FFE
7FFE
7FFE
7FFE
3FFE
1FFE
01FE
00FE
00FE
01FE
01FC
03FC
07F8
0FF8
3FF0
FFE0
FFE0
FFC0
7F00
7E00
7800
ENDCHAR
STARTCHAR hyphen.dup1
ENCODING 45
SWIDTH 332 0
DWIDTH 25 0
BBX 19 8 3 15
BITMAP
FFFFE0
FFFFE0
FFFFE0
FFFFE0
FFFFE0
FFFFE0
FFFFE0
FFFFE0
ENDCHAR
STARTCHAR period
ENCODING 46
SWIDTH 300 0
DWIDTH 23 0
BBX 13 14 5 -1
BITMAP
0F80
3FC0
7FE0
FFF0
FFF8
FFF8
FFF8
FFF8
FFF8
FFF8
FFF0
7FE0
3FC0
0F80
ENDCHAR
STARTCHAR slash
ENCODING 47
SWIDTH 339 0
DWIDTH 25 0
BBX 22 65 1 -12
BITMAP
0001FC
0001FC
0003FC
0003F8
0003F8
0003F8
0007F8
0007F0
0007F0
0007F0
0007F0
000FF0
000FE0
000FE0
000FE0
001FE0
001FC0
001FC0
001FC0
003FC0
003F80
003F80
003F80
003F80
007F80
007F00
007F00
007F00
00FF00
00FE00
00FE00
00FE00
01FE00
01FC00
01FC00
01FC00
01FC00
03FC00
03F800
03F800
03F800
07F800
07F000
07F000
07F000
0FF000
0FE000
0FE000
0FE000
0FE000
1FE000
1FC000
1FC000
1FC000
3FC000
3F8000
3F8000
3F8000
7F8000
7F0000
7F0000
7F0000
7F0000
FF0000
FE0000
ENDCHAR
STARTCHAR zero
ENCODING 48
SWIDTH 528 0
DWIDTH 40 0
BBX 34 50 3 -1
BITMAP
0000800000
001FFE0000
007FFF8000
00FFFFC000
03FFFFE000
07FFFFF000
07FFFFF800
0FFFFFFC00
1FFFFFFC00
1FFE1FFE00
3FF80FFE00
3FF007FF00
7FF003FF00
7FF003FF00
7FE003FF80
7FE001FF80
FFE001FF80
FFE001FF80
FFC001FF80
FFC001FFC0
FFC001FFC0
FFC001FFC0
FFC001FFC0
FFC001FFC0
FFC001FFC0
FFC001FFC0
FFC001FFC0
FFC001FFC0
FFC001FFC0
FFC001FFC0
FFC001FFC0
FFC001FF80
FFE001FF80
FFE001FF80
7FE001FF80
7FE003FF80
7FF003FF00
7FF003FF00
3FF007FF00
3FF807FE00
1FFC1FFE00
1FFFFFFC00
0FFFFFFC00
0FFFFFF800
07FFFFF000
03FFFFE000
01FFFFC000
007FFF8000
003FFE0000
0007F80000
ENDCHAR
STARTCHAR one
ENCODING 49
SWIDTH 528 0
DWIDTH 40 0
BBX 31 48 5 0
BITMAP
0007FC00
001FFC00
007FFC00
01FFFC00
1FFFFC00
3FFFFC00
3FFFFC00
3FFFFC00
3FFFFC00
3FFFFC00
3FFFFC00
3FFFFC00
001FFC00
001FFC00
001FFC00
001FFC00
001FFC00
001FFC00
001FFC00
001FFC00
001FFC00
001FFC00
001FFC00
001FFC00
001FFC00
001FFC00
001FFC00
001FFC00
001FFC00
001FFC00
001FFC00
001FFC00
001FFC00
001FFC00
001FFC00
001FFC00
001FFC00
001FFC00
001FFC00
FFFFFFFE
FFFFFFFE
FFFFFFFE
FFFFFFFE
FFFFFFFE
FFFFFFFE
FFFFFFFE
FFFFFFFE
FFFFFFFE
ENDCHAR
STARTCHAR two
ENCODING 50
SWIDTH 528 0
DWIDTH 40 0
BBX 33 49 3 0
BITMAP
0003800000
007FFC0000
03FFFF0000
07FFFF8000
1FFFFFE000
3FFFFFE000
7FFFFFF000
FFFFFFF800
FFFFFFF800
7FE0FFFC00
3F803FFC00
1F001FFE00
0E000FFE00
04000FFE00
00000FFE00
00000FFE00
00000FFE00
00000FFE00
00000FFE00
00000FFC00
00000FFC00
00001FFC00
00001FF800
00003FF800
00007FF000
0000FFF000
0000FFE000
0001FFE000
0003FFC000
0007FF8000
000FFF0000
001FFF0000
003FFE0000
007FFC0000
00FFF80000
01FFF00000
03FFE00000
07FFC00000
0FFF800000
1FFF000000
3FFFFFFF80
7FFFFFFF80
FFFFFFFF80
FFFFFFFF80
FFFFFFFF80
FFFFFFFF80
FFFFFFFF80
FFFFFFFF80
FFFFFFFF80
ENDCHAR
STARTCHAR three
ENCODING 51
SWIDTH 528 0
DWIDTH 40 0
BBX 34 50 2 -1
BITMAP
0000800000
003FFE0000
01FFFFC000
07FFFFE000
0FFFFFF800
3FFFFFFC00
7FFFFFFC00
3FFFFFFE00
1FFFFFFE00
1FF83FFF00
0FC00FFF00
078007FF00
020007FF00
000007FF00
000007FF00
000007FF00
000007FF00
00000FFF00
00001FFE00
00003FFE00
0007FFFC00
003FFFF800
003FFFE000
003FFFC000
003FFF8000
003FFFE000
003FFFF800
003FFFFC00
003FFFFE00
00003FFF00
000007FF80
000003FF80
000003FF80
000001FFC0
000001FFC0
000001FFC0
000001FFC0
0C0003FFC0
1F0003FFC0
3F8007FF80
3FF01FFF80
7FFFFFFF80
FFFFFFFF00
FFFFFFFF00
7FFFFFFE00
3FFFFFFC00
0FFFFFF000
07FFFFE000
01FFFF8000
000FF80000
ENDCHAR
STARTCHAR four
ENCODING 52
SWIDTH 528 0
DWIDTH 40 0
BBX 37 48 1 0
BITMAP
00003FFE00
00007FFE00
00007FFE00
0000FFFE00
0001FFFE00
0001FFFE00
0003FFFE00
0007FFFE00
0007FFFE00
000FFFFE00
000FFFFE00
001FF7FE00
003FF7FE00
003FE7FE00
007FE7FE00
007FC7FE00
00FFC7FE00
01FF87FE00
01FF87FE00
03FF07FE00
03FF07FE00
07FE07FE00
0FFC07FE00
0FFC07FE00
1FF807FE00
1FF807FE00
3FF007FE00
7FE007FE00
7FFFFFFFF8
FFFFFFFFF8
FFFFFFFFF8
FFFFFFFFF8
FFFFFFFFF8
FFFFFFFFF8
FFFFFFFFF8
FFFFFFFFF8
FFFFFFFFF8
000007FE00
000007FE00
000007FE00
000007FE00
000007FE00
000007FE00
000007FE00
000007FE00
000007FE00
000007FE00
000007FE00
ENDCHAR
STARTCHAR five
ENCODING 53
SWIDTH 528 0
DWIDTH 40 0
BBX 34 49 2 -1
BITMAP
07FFFFFF00
07FFFFFF00
07FFFFFF00
07FFFFFF00
07FFFFFF00
07FFFFFF00
0FFFFFFF00
0FFFFFFF00
0FFFFFFF00
0FFFFFFF00
0FFC000000
0FFC000000
0FFC000000
0FFC000000
0FFC000000
0FFC000000
0FFC000000
0FFC000000
0FFFFF8000
0FFFFFE000
0FFFFFF800
0FFFFFFC00
0FFFFFFE00
0FFFFFFF00
0FFFFFFF00
07F87FFF80
01C00FFF80
008007FF80
000003FFC0
000003FFC0
000001FFC0
000001FFC0
000001FFC0
000001FFC0
000001FFC0
080003FFC0
0C0003FFC0
1F0007FF80
3F800FFF80
3FF03FFF80
7FFFFFFF00
FFFFFFFE00
FFFFFFFE00
7FFFFFFC00
3FFFFFF800
0FFFFFF000
03FFFFC000
00FFFF0000
001FF00000
ENDCHAR
STARTCHAR six
ENCODING 54
SWIDTH 528 0
DWIDTH 40 0
BBX 34 50 3 -1
BITMAP
0000380000
0007FFC000
001FFFF000
007FFFFC00
00FFFFFE00
01FFFFFF80
03FFFFFF80
07FFFFFF00
07FFFFFE00
0FFFE7FC00
1FFF00F800
1FFC003800
3FF8001000
3FF8000000
3FF0000000
7FF0000000
7FE0000000
7FE0000000
7FE0000000
FFE03E0000
FFE1FFC000
FFC7FFF000
FFCFFFFC00
FFDFFFFE00
FFFFFFFE00
FFFFFFFF00
FFFFFFFF80
FFFE0FFF80
FFF803FF80
FFF001FF80
FFE001FFC0
FFE000FFC0
FFE000FFC0
7FE000FFC0
7FE000FFC0
7FE000FFC0
7FF000FFC0
3FF001FFC0
3FF001FF80
3FF803FF80
1FFC07FF80
0FFF9FFF00
0FFFFFFF00
07FFFFFE00
03FFFFFC00
01FFFFF800
00FFFFF000
007FFFE000
001FFF8000
0001FC0000
ENDCHAR
STARTCHAR seven
ENCODING 55
SWIDTH 528 0
DWIDTH 40 0
BBX 33 48 3 0
BITMAP
FFFFFFFF80
FFFFFFFF80
FFFFFFFF80
FFFFFFFF80
FFFFFFFF80
FFFFFFFF80
FFFFFFFF80
FFFFFFFF80
FFFFFFFF00
FFFFFFFF00
000007FE00
00000FFC00
00000FF800
00001FF800
00003FF000
00003FE000
00007FE000
00007FC000
0000FFC000
0000FF8000
0001FF8000
0001FF0000
0003FF0000
0003FF0000
0007FE0000
0007FE0000
0007FE0000
000FFC0000
000FFC0000
000FFC0000
001FFC0000
001FFC0000
001FF80000
001FF80000
003FF80000
003FF80000
003FF80000
003FF80000
003FF80000
003FF80000
003FF00000
007FF00000
007FF00000
007FF00000
007FF00000
007FF00000
007FF00000
007FF00000
ENDCHAR
STARTCHAR eight
ENCODING 56
SWIDTH 528 0
DWIDTH 40 0
BBX 34 50 3 -1
BITMAP
0000C00000
001FFE0000
00FFFF8000
01FFFFE000
03FFFFF000
07FFFFF800
0FFFFFFC00
1FFFFFFC00
1FFE1FFE00
3FF807FE00
3FF003FE00
3FF003FE00
3FF003FF00
3FF001FF00
3FF001FF00
3FF001FE00
3FF003FE00
3FF803FE00
1FFC03FC00
1FFF07FC00
0FFFCFF800
07FFFFF000
03FFFFE000
01FFFFC000
00FFFFC000
00FFFFE000
03FFFFF800
07FFFFFC00
0FFBFFFE00
1FF07FFF00
3FE01FFF00
7FE00FFF80
7FC003FF80
7FC001FF80
FFC001FF80
FFC001FFC0
FFC001FFC0
FFC001FFC0
FFC001FF80
FFE001FF80
7FF003FF80
7FF80FFF80
3FFFFFFF00
3FFFFFFE00
1FFFFFFE00
0FFFFFFC00
07FFFFF000
01FFFFE000
007FFF8000
000FF80000
ENDCHAR
STARTCHAR nine
ENCODING 57
SWIDTH 528 0
DWIDTH 40 0
BBX 33 50 3 -1
BITMAP
0003800000
007FF80000
01FFFE0000
03FFFF8000
0FFFFFC000
1FFFFFE000
1FFFFFF000
3FFFFFF800
7FFFFFFC00
7FF83FFC00
FFE00FFE00
FFE007FE00
FFC007FF00
FFC003FF00
FFC003FF00
FFC003FF80
FFC001FF80
FFC001FF80
FFC001FF80
FFC003FF80
FFC003FF80
FFE007FF80
FFF01FFF80
7FFFFFFF80
7FFFFFFF80
3FFFFFFF80
1FFFFFFF80
0FFFFDFF80
07FFF9FF80
03FFE1FF80
007F81FF80
000001FF80
000003FF80
000003FF00
000003FF00
000007FF00
000007FF00
00000FFE00
06000FFE00
0F003FFC00
1FE0FFFC00
1FFFFFF800
3FFFFFF000
7FFFFFF000
7FFFFFE000
3FFFFFC000
1FFFFF8000
07FFFE0000
01FFF80000
003FC00000
ENDCHAR
STARTCHAR colon
ENCODING 58
SWIDTH 300 0
DWIDTH 23 0
BBX 13 38 5 -1
BITMAP
0F80
3FC0
7FE0
FFF0
FFF8
FFF8
FFF8
FFF8
FFF8
FFF8
FFF0
7FE0
3FC0
0F80
0000
0000
0000
0000
0000
0000
0000
0000
0000
0000
0F80
3FC0
7FE0
FFF0
FFF8
FFF8
FFF8
FFF8
FFF8
FFF8
FFF0
7FE0
3FC0
0F80
ENDCHAR
STARTCHAR semicolon
ENCODING 59
SWIDTH 300 0
DWIDTH 23 0
BBX 15 51 4 -14
BITMAP
07C0
1FE0
3FF0
7FF8
7FFC
7FFC
7FFC
7FFC
7FFC
7FFC
7FF8
3FF0
1FE0
07C0
0000
0000
0000
0000
0000
0000
0000
0000
0000
0000
07C0
1FF0
3FF8
7FFC
7FFC
7FFE
7FFE
7FFE
7FFE
7FFE
3FFE
1FFE
01FE
00FE
00FE
01FE
01FC
03FC
07F8
0FF8
3FF0
FFE0
FFE0
FFC0
7F00
7E00
7800
ENDCHAR
STARTCHAR less
ENCODING 60
SWIDTH 528 0
DWIDTH 40 0
BBX 34 34 3 8
BITMAP
0000000040
00000003C0
0000000FC0
0000007FC0
000003FFC0
00000FFFC0
00007FFFC0
0001FFFFC0
000FFFFFC0
007FFFFF80
01FFFFFC00
0FFFFFE000
3FFFFF0000
FFFFF80000
FFFFC00000
FFFE000000
FFF0000000
FFE0000000
FFFC000000
FFFF800000
FFFFF00000
7FFFFE0000
0FFFFFC000
03FFFFF800
007FFFFF00
001FFFFFC0
0003FFFFC0
00007FFFC0
00001FFFC0
000003FFC0
000000FFC0
0000001FC0
00000003C0
00000000C0
ENDCHAR
STARTCHAR equal
ENCODING 61
SWIDTH 528 0
DWIDTH 40 0
BBX 34 25 3 12
BITMAP
FFFFFFFFC0
FFFFFFFFC0
FFFFFFFFC0
FFFFFFFFC0
FFFFFFFFC0
FFFFFFFFC0
FFFFFFFFC0
0000000000
0000000000
0000000000
0000000000
0000000000
0000000000
0000000000
0000000000
0000000000
0000000000
FFFFFFFFC0
FFFFFFFFC0
FFFFFFFFC0
FFFFFFFFC0
FFFFFFFFC0
FFFFFFFFC0
FFFFFFFFC0
FFFFFFFFC0
ENDCHAR
STARTCHAR greater
ENCODING 62
SWIDTH 528 0
DWIDTH 40 0
BBX 34 34 3 8
BITMAP
8000000000
F000000000
FC00000000
FF80000000
FFE0000000
FFFC000000
FFFF000000
FFFFE00000
FFFFFC0000
7FFFFF0000
0FFFFFE000
01FFFFF800
003FFFFF00
0007FFFFC0
0000FFFFC0
00001FFFC0
000003FFC0
000003FFC0
00001FFFC0
0000FFFFC0
0003FFFFC0
001FFFFF80
00FFFFFC00
0FFFFFE000
7FFFFF8000
FFFFFC0000
FFFFF00000
FFFF800000
FFFC000000
FFF0000000
FF80000000
FE00000000
F000000000
8000000000
ENDCHAR
STARTCHAR question
ENCODING 63
SWIDTH 463 0
DWIDTH 35 0
BBX 29 52 3 -1
BITMAP
007FF000
01FFFC00
07FFFF00
1FFFFF80
3FFFFFC0
7FFFFFE0
FFFFFFE0
7FFFFFF0
3FFFFFF0
1FC0FFF0
0F007FF0
06003FF8
00003FF8
00003FF8
00003FF0
00003FF0
00007FF0
0000FFF0
0000FFE0
0001FFC0
0003FFC0
0007FF80
000FFF00
001FFE00
001FFC00
003FF800
003FF000
007FF000
007FE000
007FE000
00FFC000
00FFC000
00FFC000
007FC000
00000000
00000000
00000000
00000000
001F0000
007FC000
00FFE000
00FFE000
01FFF000
01FFF000
01FFF000
01FFF000
01FFF000
01FFF000
00FFE000
00FFE000
007FC000
001F0000
ENDCHAR
STARTCHAR at
ENCODING 64
SWIDTH 903 0
DWIDTH 68 0
BBX 60 63 4 -13
BITMAP
0000001FFF000000
000001FFFFF00000
00000FFFFFFC0000
00003FFFFFFF0000
0000FFFFFFFFC000
0003FFFFFFFFE000
0007FFFFFFFFF000
000FFFC000FFF800
001FFE00001FFC00
003FF8000007FE00
007FE0000003FE00
00FFC0000001FF00
01FF80000000FF80
03FF000000007F80
07FE000000003FC0
07FC000000003FC0
0FF8000000001FC0
0FF0003F87F01FE0
1FE000FFE7F00FE0
1FE001FFF7F00FE0
3FC007FFFFF00FE0
3FC00FFFFFE007F0
7F800FFFFFE007F0
7F801FFFFFE007F0
7F803FF07FE007F0
7F003FE03FC007F0
FF007FC03FC007F0
FF007F803FC007F0
FF00FF803FC007F0
FE00FF803FC007F0
FE00FF007F8007F0
FE00FF007F8007F0
FE01FF007F800FE0
FE01FF007F800FE0
FE01FF007F800FE0
FE01FF007F001FE0
FE01FF00FF003FC0
FE01FF01FF003FC0
FE00FF83FF807F80
FF00FFFFFF81FF00
FF00FFFFFFFFFF00
FF007FFFFFFFFE00
FF007FFF9FFFFC00
7F803FFF1FFFF800
7F801FFE0FFFE000
7FC007F807FFC000
3FC0000001FE0000
3FE0000000000000
1FE0000000000000
1FF0000000000000
0FF8000000000000
0FFC000000000000
07FF000000000000
03FFC00000000000
01FFF00003800000
00FFFE003F800000
007FFFFFFFC00000
003FFFFFFFC00000
000FFFFFFFC00000
0007FFFFFFC00000
0001FFFFFF000000
00003FFFFC000000
000001FFC0000000
ENDCHAR
STARTCHAR A
ENCODING 65
SWIDTH 573 0
DWIDTH 43 0
BBX 43 49 0 0
BITMAP
0001FFF00000
0003FFF80000
0003FFF80000
0003FFF80000
0007FFFC0000
0007FFFC0000
0007FFFC0000
0007FFFC0000
000FFFFE0000
000FFBFE0000
000FFBFE0000
001FF3FF0000
001FF3FF0000
001FF1FF0000
003FF1FF8000
003FE1FF8000
003FE1FF8000
007FE0FFC000
007FE0FFC000
007FE0FFC000
00FFC0FFE000
00FFC07FE000
00FFC07FE000
00FF807FE000
01FF807FF000
01FF803FF000
01FF803FF000
03FF003FF800
03FF003FF800
03FFFFFFF800
07FFFFFFFC00
07FFFFFFFC00
07FFFFFFFC00
0FFFFFFFFE00
0FFFFFFFFE00
0FFFFFFFFE00
1FFFFFFFFF00
1FFC0007FF00
1FFC0007FF00
1FF80007FF00
3FF80003FF80
3FF80003FF80
3FF00003FF80
7FF00003FFC0
7FF00001FFC0
7FF00001FFC0
FFE00001FFE0
FFE00001FFE0
FFE00000FFE0
ENDCHAR
STARTCHAR B
ENCODING 66
SWIDTH 605 0
DWIDTH 45 0
BBX 37 49 6 0
BITMAP
FFFFFC0000
FFFFFFE000
FFFFFFF800
FFFFFFFE00
FFFFFFFF00
FFFFFFFF80
FFFFFFFF80
FFFFFFFFC0
FFFFFFFFC0
FFE007FFC0
FFE001FFC0
FFE001FFC0
FFE000FFE0
FFE000FFC0
FFE000FFC0
FFE001FFC0
FFE001FFC0
FFE003FF80
FFE007FF80
FFE07FFF00
FFFFFFFE00
FFFFFFFC00
FFFFFFF800
FFFFFFF800
FFFFFFFE00
FFFFFFFF80
FFFFFFFFC0
FFFFFFFFE0
FFE003FFF0
FFE000FFF0
FFE0007FF0
FFE0003FF8
FFE0003FF8
FFE0003FF8
FFE0003FF8
FFE0003FF8
FFE0003FF8
FFE0007FF8
FFE000FFF0
FFE001FFF0
FFFFFFFFF0
FFFFFFFFE0
FFFFFFFFE0
FFFFFFFFC0
FFFFFFFF80
FFFFFFFE00
FFFFFFFC00
FFFFFFE000
FFFFFF0000
ENDCHAR
STARTCHAR C
ENCODING 67
SWIDTH 582 0
DWIDTH 44 0
BBX 39 51 3 -1
BITMAP
00000FC000
0000FFFE00
0003FFFF80
000FFFFFC0
003FFFFFF0
007FFFFFF8
00FFFFFFFC
01FFFFFFF8
03FFFFFFF8
07FFFFFFF0
07FFF00FE0
0FFFC003C0
1FFF800180
1FFF000080
3FFE000000
3FFC000000
3FFC000000
7FF8000000
7FF8000000
7FF0000000
7FF0000000
7FF0000000
7FF0000000
FFF0000000
FFF0000000
FFF0000000
FFF0000000
FFF0000000
7FF0000000
7FF0000000
7FF0000000
7FF0000000
7FF8000000
7FF8000000
7FF8000000
3FFC000000
3FFE000000
1FFE0000C0
1FFF0001E0
1FFF8003E0
0FFFE00FF0
07FFFFFFF8
07FFFFFFFC
03FFFFFFFE
01FFFFFFFC
00FFFFFFF8
007FFFFFF0
001FFFFFE0
0007FFFF80
0001FFFE00
00001FE000
ENDCHAR
STARTCHAR D
ENCODING 68
SWIDTH 635 0
DWIDTH 48 0
BBX 38 49 6 0
BITMAP
FFFFE00000
FFFFFF0000
FFFFFFC000
FFFFFFF000
FFFFFFFC00
FFFFFFFE00
FFFFFFFF00
FFFFFFFF80
FFFFFFFFC0
FFE07FFFC0
FFE00FFFE0
FFE003FFF0
FFE001FFF0
FFE000FFF0
FFE0007FF8
FFE0007FF8
FFE0003FF8
FFE0003FF8
FFE0003FFC
FFE0003FFC
FFE0001FFC
FFE0001FFC
FFE0001FFC
FFE0001FFC
FFE0001FFC
FFE0001FFC
FFE0001FFC
FFE0001FFC
FFE0003FFC
FFE0003FFC
FFE0003FFC
FFE0003FF8
FFE0003FF8
FFE0007FF8
FFE0007FF8
FFE000FFF0
FFE001FFF0
FFE003FFE0
FFE00FFFE0
FFE03FFFC0
FFFFFFFFC0
FFFFFFFF80
FFFFFFFF00
FFFFFFFE00
FFFFFFFC00
FFFFFFF000
FFFFFFC000
FFFFFF0000
FFFFF00000
ENDCHAR
STARTCHAR E
ENCODING 69
SWIDTH 548 0
DWIDTH 41 0
BBX 31 49 6 0
BITMAP
FFFFFFFC
FFFFFFFC
FFFFFFFC
FFFFFFFC
FFFFFFFC
FFFFFFFC
FFFFFFFC
FFFFFFFC
FFFFFFFC
FFE00000
FFE00000
FFE00000
FFE00000
FFE00000
FFE00000
FFE00000
FFE00000
FFE00000
FFE00000
FFFFFFE0
FFFFFFE0
FFFFFFE0
FFFFFFE0
FFFFFFE0
FFFFFFE0
FFFFFFE0
FFFFFFE0
FFFFFFE0
FFE00000
FFE00000
FFE00000
FFE00000
FFE00000
FFE00000
FFE00000
FFE00000
FFE00000
FFE00000
FFE00000
FFE00000
FFFFFFFE
FFFFFFFE
FFFFFFFE
FFFFFFFE
FFFFFFFE
FFFFFFFE
FFFFFFFE
FFFFFFFE
FFFFFFFE
ENDCHAR
STARTCHAR F
ENCODING 70
SWIDTH 524 0
DWIDTH 39 0
BBX 31 49 6 0
BITMAP
FFFFFFFE
FFFFFFFE
FFFFFFFE
FFFFFFFE
FFFFFFFE
FFFFFFFE
FFFFFFFE
FFFFFFFE
FFFFFFFE
FFE00000
FFE00000
FFE00000
FFE00000
FFE00000
FFE00000
FFE00000
FFE00000
FFE00000
FFE00000
FFE00000
FFE00000
FFFFFFF0
FFFFFFF0
FFFFFFF0
FFFFFFF0
FFFFFFF0
FFFFFFF0
FFFFFFF0
FFFFFFF0
FFFFFFF0
FFE00000
FFE00000
FFE00000
FFE00000
FFE00000
FFE00000
FFE00000
FFE00000
FFE00000
FFE00000
FFE00000
FFE00000
FFE00000
FFE00000
FFE00000
FFE00000
FFE00000
FFE00000
FFE00000
ENDCHAR
STARTCHAR G
ENCODING 71
SWIDTH 638 0
DWIDTH 48 0
BBX 41 51 3 -1
BITMAP
00000FE00000
0000FFFF0000
0003FFFFC000
000FFFFFF000
003FFFFFF800
007FFFFFFE00
00FFFFFFFF00
01FFFFFFFE00
03FFFFFFFC00
07FFFFFFF800
07FFF007F000
0FFFC001F000
1FFF8000E000
1FFF00000000
3FFE00000000
3FFC00000000
3FFC00000000
7FF800000000
7FF800000000
7FF800000000
7FF000000000
7FF000000000
7FF001FFFF80
FFF001FFFF80
FFF001FFFF80
FFF001FFFF80
FFF001FFFF80
FFF001FFFF80
7FF001FFFF80
7FF001FFFF80
7FF001FFFF80
7FF00001FF80
7FF80001FF80
7FF80001FF80
3FFC0001FF80
3FFC0001FF80
3FFE0001FF80
1FFF0001FF80
1FFF8001FF80
0FFFC001FF80
0FFFF003FF80
07FFFFFFFF80
03FFFFFFFF80
03FFFFFFFF80
01FFFFFFFF80
00FFFFFFFF00
003FFFFFFE00
001FFFFFF800
0007FFFFE000
0000FFFF8000
00001FF80000
ENDCHAR
STARTCHAR H
ENCODING 72
SWIDTH 674 0
DWIDTH 51 0
BBX 39 49 6 0
BITMAP
FFE0000FFE
FFE0000FFE
FFE0000FFE
FFE0000FFE
FFE0000FFE
FFE0000FFE
FFE0000FFE
FFE0000FFE
FFE0000FFE
FFE0000FFE
FFE0000FFE
FFE0000FFE
FFE0000FFE
FFE0000FFE
FFE0000FFE
FFE0000FFE
FFE0000FFE
FFE0000FFE
FFE0000FFE
FFFFFFFFFE
FFFFFFFFFE
FFFFFFFFFE
FFFFFFFFFE
FFFFFFFFFE
FFFFFFFFFE
FFFFFFFFFE
FFFFFFFFFE
FFFFFFFFFE
FFFFFFFFFE
FFE0000FFE
FFE0000FFE
FFE0000FFE
FFE0000FFE
FFE0000FFE
FFE0000FFE
FFE0000FFE
FFE0000FFE
FFE0000FFE
FFE0000FFE
FFE0000FFE
FFE0000FFE
FFE0000FFE
FFE0000FFE
FFE0000FFE
FFE0000FFE
FFE0000FFE
FFE0000FFE
FFE0000FFE
FFE0000FFE
ENDCHAR
STARTCHAR I
ENCODING 73
SWIDTH 301 0
DWIDTH 23 0
BBX 11 49 6 0
BITMAP
FFE0
FFE0
FFE0
FFE0
FFE0
FFE0
FFE0
FFE0
FFE0
FFE0
FFE0
FFE0
FFE0
FFE0
FFE0
FFE0
FFE0
FFE0
FFE0
FFE0
FFE0
FFE0
FFE0
FFE0
FFE0
FFE0
FFE0
FFE0
FFE0
FFE0
FFE0
FFE0
FFE0
FFE0
FFE0
FFE0
FFE0
FFE0
FFE0
FFE0
FFE0
FFE0
FFE0
FFE0
FFE0
FFE0
FFE0
FFE0
FFE0
ENDCHAR
STARTCHAR J
ENCODING 74
SWIDTH 509 0
DWIDTH 38 0
BBX 32 50 1 -1
BITMAP
000007FF
000007FF
000007FF
000007FF
000007FF
000007FF
000007FF
000007FF
000007FF
000007FF
000007FF
000007FF
000007FF
000007FF
000007FF
000007FF
000007FF
000007FF
000007FF
000007FF
000007FF
000007FF
000007FF
000007FF
000007FF
000007FF
000007FF
000007FF
000007FF
000007FF
000007FF
000007FF
000007FF
000007FF
00000FFF
00000FFE
03000FFE
07800FFE
0FC01FFE
3FE03FFE
7FFFFFFC
FFFFFFFC
7FFFFFF8
3FFFFFF8
1FFFFFF0
0FFFFFE0
07FFFFC0
03FFFF80
00FFFE00
000FF000
ENDCHAR
STARTCHAR K
ENCODING 75
SWIDTH 614 0
DWIDTH 46 0
BBX 40 49 6 0
BITMAP
FFE0007FF8
FFE0007FF8
FFE000FFF0
FFE001FFE0
FFE003FFC0
FFE003FFC0
FFE007FF80
FFE00FFF00
FFE00FFE00
FFE01FFE00
FFE03FFC00
FFE07FF800
FFE07FF000
FFE0FFF000
FFE1FFE000
FFE3FFC000
FFE3FF8000
FFE7FF8000
FFEFFF0000
FFEFFE0000
FFFFFF0000
FFFFFF0000
FFFFFF8000
FFFFFF8000
FFFFFFC000
FFFFFFE000
FFFFFFE000
FFFFFFF000
FFFF7FF000
FFFF7FF800
FFFE3FFC00
FFFC3FFC00
FFF81FFE00
FFF81FFE00
FFF00FFF00
FFE007FF00
FFE007FF80
FFE003FFC0
FFE003FFC0
FFE001FFE0
FFE001FFE0
FFE000FFF0
FFE0007FF8
FFE0007FF8
FFE0003FFC
FFE0003FFC
FFE0001FFE
FFE0000FFF
FFE0000FFF
ENDCHAR
STARTCHAR L
ENCODING 76
SWIDTH 518 0
DWIDTH 39 0
BBX 30 49 6 0
BITMAP
FFE00000
FFE00000
FFE00000
FFE00000
FFE00000
FFE00000
FFE00000
FFE00000
FFE00000
FFE00000
FFE00000
FFE00000
FFE00000
FFE00000
FFE00000
FFE00000
FFE00000
FFE00000
FFE00000
FFE00000
FFE00000
FFE00000
FFE00000
FFE00000
FFE00000
FFE00000
FFE00000
FFE00000
FFE00000
FFE00000
FFE00000
FFE00000
FFE00000
FFE00000
FFE00000
FFE00000
FFE00000
FFE00000
FFE00000
FFE00000
FFFFFFFC
FFFFFFFC
FFFFFFFC
FFFFFFFC
FFFFFFFC
FFFFFFFC
FFFFFFFC
FFFFFFFC
FFFFFFFC
ENDCHAR
STARTCHAR M
ENCODING 77
SWIDTH 762 0
DWIDTH 57 0
BBX 45 49 6 0
BITMAP
FFF000007FF8
FFF000007FF8
FFF800007FF8
FFF80000FFF8
FFF80000FFF8
FFFC0001FFF8
FFFC0001FFF8
FFFE0001FFF8
FFFE0003FFF8
FFFE0003FFF8
FFFF0003FFF8
FFFF0007FFF8
FFFF0007FFF8
FFFF8007FFF8
FF7F800FF7F8
FF7F800FF7F8
FF7FC00FF7F8
FFBFC01FEFF8
FFBFE01FEFF8
FFBFE03FEFF8
FF9FE03FCFF8
FF9FF03FCFF8
FF9FF07FCFF8
FF8FF07F8FF8
FF8FF87F8FF8
FF8FF8FF8FF8
FF87F8FF1FF8
FFC7FCFF1FF8
FFC7FCFF1FF8
FFC3FDFE1FF8
FFC3FDFE1FF8
FFC3FFFC1FF8
FFC1FFFC1FF8
FFC1FFFC1FF8
FFC0FFF81FF8
FFC0FFF81FF8
FFC0FFF81FF8
FFC07FF01FF8
FFC07FF01FF8
FFC07FE01FF8
FFC03FE01FF8
FFC03FE01FF8
FFC01FC01FF8
FFC01FC01FF8
FFC01FC01FF8
FFC000001FF8
FFC000001FF8
FFC000001FF8
FFC000001FF8
ENDCHAR
STARTCHAR N
ENCODING 78
SWIDTH 665 0
DWIDTH 50 0
BBX 38 49 6 0
BITMAP
FFE0000FFC
FFF0000FFC
FFF0000FFC
FFF8000FFC
FFF8000FFC
FFFC000FFC
FFFC000FFC
FFFE000FFC
FFFF000FFC
FFFF000FFC
FFFF800FFC
FFFF800FFC
FFFFC00FFC
FFFFC00FFC
FFFFE00FFC
FFBFE00FFC
FFBFF00FFC
FF9FF00FFC
FF9FF80FFC
FF8FF80FFC
FFCFFC0FFC
FFC7FC0FFC
FFC7FE0FFC
FFC3FE0FFC
FFC3FF0FFC
FFC3FF0FFC
FFC1FF8FFC
FFC0FF8FFC
FFC0FFCFFC
FFC07FCFFC
FFC07FE7FC
FFC03FE7FC
FFC03FE7FC
FFC01FF7FC
FFC01FF7FC
FFC00FFFFC
FFC00FFFFC
FFC007FFFC
FFC007FFFC
FFC003FFFC
FFC003FFFC
FFC001FFFC
FFC001FFFC
FFC000FFFC
FFC000FFFC
FFC0007FFC
FFC0007FFC
FFC0003FFC
FFC0001FFC
ENDCHAR
STARTCHAR O
ENCODING 79
SWIDTH 684 0
DWIDTH 51 0
BBX 45 51 3 -1
BITMAP
00001FE00000
0001FFFE0000
000FFFFF8000
001FFFFFE000
007FFFFFF000
00FFFFFFF800
01FFFFFFFC00
03FFFFFFFE00
07FFFFFFFF00
07FFFFFFFF80
0FFFE01FFF80
1FFF800FFFC0
1FFF0007FFC0
3FFE0003FFE0
3FFC0001FFE0
3FFC0000FFF0
7FF80000FFF0
7FF80000FFF0
7FF800007FF0
7FF000007FF0
7FF000007FF8
7FF000007FF8
7FF000007FF8
FFF000007FF8
FFF000003FF8
FFF000003FF8
FFF000007FF8
FFF000007FF8
7FF000007FF8
7FF000007FF8
7FF000007FF8
7FF000007FF0
7FF800007FF0
7FF80000FFF0
3FF80000FFF0
3FFC0001FFE0
3FFC0001FFE0
1FFE0003FFE0
1FFF0007FFC0
1FFF800FFFC0
0FFFE01FFF80
07FFFFFFFF80
07FFFFFFFF00
03FFFFFFFE00
01FFFFFFFC00
00FFFFFFF800
007FFFFFF000
001FFFFFE000
000FFFFF8000
0003FFFE0000
00003FE00000
ENDCHAR
STARTCHAR P
ENCODING 80
SWIDTH 596 0
DWIDTH 45 0
BBX 36 49 6 0
BITMAP
FFFFFC0000
FFFFFFC000
FFFFFFF800
FFFFFFFC00
FFFFFFFF00
FFFFFFFF80
FFFFFFFF80
FFFFFFFFC0
FFFFFFFFE0
FFE007FFE0
FFE001FFE0
FFE000FFF0
FFE0007FF0
FFE0007FF0
FFE0007FF0
FFE0007FF0
FFE0007FF0
FFE0007FF0
FFE0007FF0
FFE0007FF0
FFE000FFE0
FFE001FFE0
FFE003FFE0
FFE07FFFC0
FFFFFFFFC0
FFFFFFFF80
FFFFFFFF00
FFFFFFFE00
FFFFFFFC00
FFFFFFF800
FFFFFFE000
FFFFFF0000
FFE0000000
FFE0000000
FFE0000000
FFE0000000
FFE0000000
FFE0000000
FFE0000000
FFE0000000
FFE0000000
FFE0000000
FFE0000000
FFE0000000
FFE0000000
FFE0000000
FFE0000000
FFE0000000
FFE0000000
ENDCHAR
STARTCHAR Q
ENCODING 81
SWIDTH 684 0
DWIDTH 51 0
BBX 47 64 3 -14
BITMAP
00001FE00000
0001FFFE0000
000FFFFF8000
001FFFFFE000
007FFFFFF000
00FFFFFFF800
01FFFFFFFC00
03FFFFFFFE00
07FFFFFFFF00
07FFFFFFFF80
0FFFE01FFF80
1FFF800FFFC0
1FFF0007FFC0
3FFE0003FFE0
3FFC0001FFE0
3FFC0000FFF0
7FF80000FFF0
7FF80000FFF0
7FF800007FF0
7FF000007FF0
7FF000007FF8
7FF000007FF8
7FF000007FF8
FFF000007FF8
FFF000003FF8
FFF000003FF8
FFF000007FF8
FFF000007FF8
7FF000007FF8
7FF000007FF8
7FF000007FF8
7FF000007FF0
7FF800007FF0
7FF80000FFF0
3FF80000FFF0
3FFC0000FFE0
3FFC0001FFE0
1FFE0001FFE0
1FFE0003FFC0
1FFF0007FFC0
0FFFC00FFF80
07FFF07FFF80
07FFFFFFFF00
03FFFFFFFE00
01FFFFFFFC00
00FFFFFFF800
007FFFFFF000
001FFFFFE000
000FFFFF8000
0001FFFE0000
00003FFC0000
00003FFE0000
00001FFF0000
00001FFFC000
00000FFFF81C
000007FFFFFC
000003FFFFFC
000001FFFFFC
000000FFFFFE
0000007FFFFE
0000001FFFFE
0000000FFFFE
00000001FFFC
000000000F00
ENDCHAR
STARTCHAR R
ENCODING 82
SWIDTH 613 0
DWIDTH 46 0
BBX 38 49 6 0
BITMAP
FFFFFE0000
FFFFFFE000
FFFFFFF800
FFFFFFFE00
FFFFFFFF00
FFFFFFFF80
FFFFFFFFC0
FFFFFFFFE0
FFFFFFFFE0
FFE007FFE0
FFE001FFF0
FFE000FFF0
FFE0007FF0
FFE0007FF0
FFE0007FF0
FFE0007FF0
FFE0007FF0
FFE0007FF0
FFE0007FF0
FFE000FFF0
FFE001FFF0
FFE003FFE0
FFE07FFFE0
FFFFFFFFC0
FFFFFFFFC0
FFFFFFFF80
FFFFFFFF00
FFFFFFFE00
FFFFFFF800
FFFFFFF000
FFFFFFF000
FFE07FF800
FFE07FF800
FFE03FFC00
FFE01FFC00
FFE01FFE00
FFE00FFF00
FFE00FFF00
FFE007FF80
FFE007FF80
FFE003FFC0
FFE003FFC0
FFE001FFE0
FFE001FFF0
FFE000FFF0
FFE000FFF8
FFE0007FF8
FFE0007FFC
FFE0003FFC
ENDCHAR
STARTCHAR S
ENCODING 83
SWIDTH 556 0
DWIDTH 42 0
BBX 36 51 3 -1
BITMAP
0001FC0000
001FFFC000
007FFFF800
00FFFFFE00
03FFFFFF00
07FFFFFF80
0FFFFFFFE0
0FFFFFFFC0
1FFFFFFF80
1FFFFFFF00
3FFE00FF00
3FFC003E00
3FF8000C00
3FF8000000
3FF8000000
3FF8000000
3FFC000000
3FFE000000
3FFF800000
3FFFE00000
1FFFFC0000
1FFFFF0000
0FFFFFE000
07FFFFF800
03FFFFFC00
01FFFFFF00
00FFFFFF80
003FFFFFC0
000FFFFFC0
0001FFFFE0
00007FFFE0
00001FFFF0
000007FFF0
000001FFF0
000000FFF0
0000007FF0
0000007FF0
0600007FF0
0F8000FFF0
1FE000FFF0
3FF801FFE0
3FFFFFFFE0
7FFFFFFFC0
FFFFFFFFC0
FFFFFFFF80
3FFFFFFF00
1FFFFFFE00
07FFFFFC00
01FFFFF000
007FFFC000
0007FC0000
ENDCHAR
STARTCHAR T
ENCODING 84
SWIDTH 556 0
DWIDTH 42 0
BBX 38 49 2 0
BITMAP
FFFFFFFFFC
FFFFFFFFFC
FFFFFFFFFC
FFFFFFFFFC
FFFFFFFFFC
FFFFFFFFFC
FFFFFFFFFC
FFFFFFFFFC
FFFFFFFFFC
0007FF0000
0007FF0000
0007FF0000
0007FF0000
0007FF0000
0007FF0000
0007FF0000
0007FF0000
0007FF0000
0007FF0000
0007FF0000
0007FF0000
0007FF0000
0007FF0000
0007FF0000
0007FF0000
0007FF0000
0007FF0000
0007FF0000
0007FF0000
0007FF0000
0007FF0000
0007FF0000
0007FF0000
0007FF0000
0007FF0000
0007FF0000
0007FF0000
0007FF0000
0007FF0000
0007FF0000
0007FF0000
0007FF0000
0007FF0000
0007FF0000
0007FF0000
0007FF0000
0007FF0000
0007FF0000
0007FF0000
ENDCHAR
STARTCHAR U
ENCODING 85
SWIDTH 665 0
DWIDTH 50 0
BBX 39 50 5 -1
BITMAP
FFF00007FE
FFF00007FE
FFF00007FE
FFF00007FE
FFF00007FE
FFF00007FE
FFF00007FE
FFF00007FE
FFF00007FE
FFF00007FE
FFF00007FE
FFF00007FE
FFF00007FE
FFF00007FE
FFF00007FE
FFF00007FE
FFF00007FE
FFF00007FE
FFF00007FE
FFF00007FE
FFF00007FE
FFF00007FE
FFF00007FE
FFF00007FE
FFF00007FE
FFF00007FE
FFF00007FE
FFF00007FE
FFF00007FE
7FF00007FE
7FF00007FE
7FF0000FFE
7FF0000FFE
7FF0000FFE
7FF0000FFE
7FF8000FFC
3FF8001FFC
3FFC003FFC
3FFE003FFC
1FFF00FFF8
1FFFFFFFF8
0FFFFFFFF0
0FFFFFFFF0
07FFFFFFE0
03FFFFFFC0
01FFFFFF80
00FFFFFF00
007FFFFE00
000FFFF000
0001FF8000
ENDCHAR
STARTCHAR V
ENCODING 86
SWIDTH 556 0
DWIDTH 42 0
BBX 42 49 0 0
BITMAP
FFE00001FFC0
FFF00001FFC0
FFF00003FFC0
FFF00003FF80
7FF00003FF80
7FF80003FF80
7FF80007FF00
3FF80007FF00
3FF80007FF00
3FFC0007FE00
1FFC000FFE00
1FFC000FFE00
1FFC000FFE00
0FFE000FFC00
0FFE001FFC00
0FFE001FFC00
0FFE001FF800
07FF001FF800
07FF003FF800
07FF003FF000
03FF003FF000
03FF803FF000
03FF807FF000
01FF807FE000
01FF807FE000
01FFC07FE000
01FFC0FFC000
00FFC0FFC000
00FFC0FFC000
00FFE0FF8000
007FE1FF8000
007FE1FF8000
007FE1FF0000
003FF1FF0000
003FF3FF0000
003FF3FF0000
003FF3FE0000
001FFBFE0000
001FFFFE0000
001FFFFC0000
000FFFFC0000
000FFFFC0000
000FFFF80000
0007FFF80000
0007FFF80000
0007FFF80000
0007FFF00000
0003FFF00000
0003FFF00000
ENDCHAR
STARTCHAR W
ENCODING 87
SWIDTH 813 0
DWIDTH 61 0
BBX 59 49 1 0
BITMAP
FFE0007FE000FFE0
FFF0007FE000FFE0
FFF0007FE000FFE0
7FF000FFE000FFC0
7FF000FFF000FFC0
7FF000FFF000FFC0
7FF000FFF001FFC0
7FF001FFF001FFC0
3FF801FFF001FFC0
3FF801FFF801FF80
3FF801FFF801FF80
3FF801FFF801FF80
3FF803FFF801FF80
1FF803FFFC03FF80
1FFC03FFFC03FF00
1FFC03FBFC03FF00
1FFC07FBFC03FF00
1FFC07FBFE03FF00
1FFC07FBFE03FF00
0FFC07FBFE03FF00
0FFC0FFBFE07FE00
0FFE0FF1FE07FE00
0FFE0FF1FF07FE00
0FFE0FF1FF07FE00
07FE0FF1FF07FE00
07FE1FF1FF07FC00
07FE1FE0FF07FC00
07FE1FE0FF8FFC00
07FE1FE0FF8FFC00
03FF1FE0FF8FFC00
03FF3FE0FF8FFC00
03FF3FC07F8FF800
03FF3FC07FCFF800
03FF3FC07FCFF800
03FF3FC07FCFF800
01FF3FC03FDFF800
01FF7F803FDFF800
01FFFF803FFFF000
01FFFF803FFFF000
01FFFF803FFFF000
00FFFF801FFFF000
00FFFF001FFFF000
00FFFF001FFFE000
00FFFF001FFFE000
00FFFF001FFFE000
00FFFF000FFFE000
007FFE000FFFE000
007FFE000FFFE000
007FFE000FFFC000
ENDCHAR
STARTCHAR X
ENCODING 88
SWIDTH 567 0
DWIDTH 43 0
BBX 40 49 1 0
BITMAP
7FF8000FFF
7FFC001FFE
3FFC001FFE
3FFE001FFC
1FFE003FFC
0FFE003FF8
0FFF007FF8
07FF007FF0
07FF807FF0
03FF80FFE0
03FFC0FFC0
01FFC1FFC0
01FFE1FF80
00FFE3FF80
00FFF3FF00
007FF3FF00
007FF7FE00
003FFFFE00
001FFFFC00
001FFFFC00
000FFFF800
000FFFF800
0007FFF000
0007FFF000
0007FFE000
0007FFF000
000FFFF000
001FFFF800
001FFFF800
003FFFFC00
003FFFFE00
007FEFFE00
007FE7FF00
00FFE7FF00
00FFC7FF80
01FFC3FF80
01FF83FFC0
03FF81FFC0
07FF01FFE0
07FF00FFE0
0FFF00FFF0
0FFE007FF8
1FFE007FF8
1FFC003FFC
3FFC003FFC
3FF8001FFE
7FF8001FFE
7FF0000FFF
FFF0000FFF
ENDCHAR
STARTCHAR Y
ENCODING 89
SWIDTH 525 0
DWIDTH 39 0
BBX 40 49 0 0
BITMAP
FFE0000FFF
FFF0000FFE
7FF0001FFE
7FF8001FFC
7FF8001FFC
3FF8003FF8
3FFC003FF8
1FFC007FF8
1FFE007FF0
0FFE007FF0
0FFE00FFE0
07FF00FFE0
07FF00FFC0
03FF01FFC0
03FF81FF80
01FF83FF80
01FFC3FF00
00FFC3FF00
00FFC7FE00
00FFE7FE00
007FEFFC00
007FEFFC00
003FFFF800
003FFFF800
001FFFF800
001FFFF000
000FFFF000
000FFFE000
0007FFE000
0007FFC000
0003FFC000
0003FF8000
0003FF8000
0003FF8000
0003FF8000
0003FF8000
0003FF8000
0003FF8000
0003FF8000
0003FF8000
0003FF8000
0003FF8000
0003FF8000
0003FF8000
0003FF8000
0003FF8000
0003FF8000
0003FF8000
0003FF8000
ENDCHAR
STARTCHAR Z
ENCODING 90
SWIDTH 541 0
DWIDTH 41 0
BBX 35 49 3 0
BITMAP
3FFFFFFFE0
3FFFFFFFE0
3FFFFFFFE0
3FFFFFFFE0
3FFFFFFFE0
3FFFFFFFE0
3FFFFFFFE0
3FFFFFFFC0
3FFFFFFFC0
000007FF80
000007FF00
00000FFF00
00001FFE00
00001FFC00
00003FFC00
00007FF800
00007FF800
0000FFF000
0001FFE000
0001FFE000
0003FFC000
0007FF8000
0007FF8000
000FFF0000
001FFE0000
001FFE0000
003FFC0000
007FF80000
007FF80000
00FFF00000
01FFE00000
01FFE00000
03FFC00000
07FF800000
07FF800000
0FFF000000
0FFE000000
1FFE000000
3FFC000000
3FF8000000
7FFFFFFFE0
FFFFFFFFE0
FFFFFFFFE0
FFFFFFFFE0
FFFFFFFFE0
FFFFFFFFE0
FFFFFFFFE0
FFFFFFFFE0
FFFFFFFFE0
ENDCHAR
STARTCHAR bracketleft
ENCODING 91
SWIDTH 344 0
DWIDTH 26 0
BBX 15 64 7 -11
BITMAP
FFFE
FFFE
FFFE
FFFE
FFFE
FFFE
FF00
FF00
FF00
FF00
FF00
FF00
FF00
FF00
FF00
FF00
FF00
FF00
FF00
FF00
FF00
FF00
FF00
FF00
FF00
FF00
FF00
FF00
FF00
FF00
FF00
FF00
FF00
FF00
FF00
FF00
FF00
FF00
FF00
FF00
FF00
FF00
FF00
FF00
FF00
FF00
FF00
FF00
FF00
FF00
FF00
FF00
FF00
FF00
FF00
FF00
FF00
FF00
FF00
FFFE
FFFE
FFFE
FFFE
FFFE
ENDCHAR
STARTCHAR backslash
ENCODING 92
SWIDTH 339 0
DWIDTH 25 0
BBX 22 65 2 -12
BITMAP
FE0000
FF0000
7F0000
7F0000
7F0000
7F8000
3F8000
3F8000
3F8000
3FC000
1FC000
1FC000
1FC000
1FC000
0FE000
0FE000
0FE000
0FE000
0FF000
07F000
07F000
07F000
07F800
03F800
03F800
03F800
03FC00
01FC00
01FC00
01FC00
01FC00
01FE00
00FE00
00FE00
00FE00
00FF00
007F00
007F00
007F00
007F80
003F80
003F80
003F80
003F80
003FC0
001FC0
001FC0
001FC0
001FE0
000FE0
000FE0
000FE0
000FF0
0007F0
0007F0
0007F0
0007F0
0003F8
0003F8
0003F8
0003F8
0003FC
0001FC
0001FC
0001FC
ENDCHAR
STARTCHAR bracketright
ENCODING 93
SWIDTH 344 0
DWIDTH 26 0
BBX 16 64 3 -11
BITMAP
FFFF
FFFF
FFFF
FFFF
FFFF
FFFF
00FF
00FF
00FF
00FF
00FF
00FF
00FF
00FF
00FF
00FF
00FF
00FF
00FF
00FF
00FF
00FF
00FF
00FF
00FF
00FF
00FF
00FF
00FF
00FF
00FF
00FF
00FF
00FF
00FF
00FF
00FF
00FF
00FF
00FF
00FF
00FF
00FF
00FF
00FF
00FF
00FF
00FF
00FF
00FF
00FF
00FF
00FF
00FF
00FF
00FF
00FF
00FF
00FF
FFFF
FFFF
FFFF
FFFF
FFFF
ENDCHAR
STARTCHAR asciicircum
ENCODING 94
SWIDTH 528 0
DWIDTH 40 0
BBX 31 29 4 21
BITMAP
001FF800
001FF800
003FF800
003FFC00
003FFC00
007FFC00
007FFE00
00FFFE00
00FFFF00
00FFFF00
01FEFF00
01FE7F80
03FE7F80
03FC7FC0
03FC3FC0
07FC3FC0
07F83FE0
0FF81FE0
0FF81FF0
0FF01FF0
1FF00FF0
1FF00FF8
3FE00FF8
3FE007FC
3FE007FC
7FC007FC
7FC003FE
7FC003FE
FF8003FE
ENDCHAR
STARTCHAR underscore
ENCODING 95
SWIDTH 500 0
DWIDTH 38 0
BBX 36 7 1 -11
BITMAP
FFFFFFFFF0
FFFFFFFFF0
FFFFFFFFF0
FFFFFFFFF0
FFFFFFFFF0
FFFFFFFFF0
FFFFFFFFF0
ENDCHAR
STARTCHAR grave
ENCODING 96
SWIDTH 555 0
DWIDTH 42 0
BBX 18 19 7 43
BITMAP
020000
070000
0F8000
1FC000
3FE000
7FF000
FFF000
FFF800
7FFC00
3FFE00
1FFF00
0FFF80
07FFC0
01FFC0
00FFC0
007F80
003F00
001E00
000C00
ENDCHAR
STARTCHAR a
ENCODING 97
SWIDTH 527 0
DWIDTH 40 0
BBX 32 39 3 -1
BITMAP
000FFC00
00FFFF80
03FFFFE0
0FFFFFF0
3FFFFFF8
3FFFFFF8
3FFFFFFC
1FFFFFFC
1FFFFFFE
0FE01FFE
07000FFE
04000FFF
000007FF
000007FF
00003FFF
0007FFFF
007FFFFF
01FFFFFF
07FFFFFF
0FFFFFFF
1FFFFFFF
3FFF87FF
7FFC07FF
7FF007FF
7FE007FF
FFE007FF
FFE007FF
FFE007FF
FFE00FFF
FFF03FFF
FFFFFFFF
7FFFFFFF
7FFFFFFF
3FFFFFFF
3FFFFFFF
1FFFF1FF
0FFFE1FF
07FF81FF
00FE0000
ENDCHAR
STARTCHAR b
ENCODING 98
SWIDTH 573 0
DWIDTH 43 0
BBX 35 54 5 -1
BITMAP
FFE0000000
FFE0000000
FFE0000000
FFE0000000
FFE0000000
FFE0000000
FFE0000000
FFE0000000
FFE0000000
FFE0000000
FFE0000000
FFE0000000
FFE0000000
FFE0000000
FFE0000000
FFE07F8000
FFE3FFE000
FFE7FFF800
FFFFFFFC00
FFFFFFFE00
FFFFFFFE00
FFFFFFFF00
FFFFFFFF80
FFFFFFFF80
FFFE0FFFC0
FFF807FFC0
FFF003FFC0
FFE001FFC0
FFE001FFE0
FFE001FFE0
FFE001FFE0
FFE001FFE0
FFE000FFE0
FFE000FFE0
FFE000FFE0
FFE000FFE0
FFE000FFE0
FFE001FFE0
FFE001FFE0
FFE001FFE0
FFE001FFC0
FFE003FFC0
FFE007FFC0
FFF007FF80
FFFC1FFF80
FFFFFFFF00
FFFFFFFF00
FFFFFFFE00
FFFFFFFC00
FFBFFFF800
FF9FFFF000
FF8FFFE000
FF83FF8000
00007C0000
ENDCHAR
STARTCHAR c
ENCODING 99
SWIDTH 467 0
DWIDTH 35 0
BBX 30 39 3 -1
BITMAP
0003FF00
001FFFC0
007FFFF0
01FFFFF8
03FFFFF8
07FFFFF8
0FFFFFF0
1FFFFFE0
1FFFFFE0
3FFF03C0
7FFE0080
7FFC0000
7FF80000
FFF00000
FFF00000
FFE00000
FFE00000
FFE00000
FFE00000
FFE00000
FFE00000
FFE00000
FFE00000
FFF00000
FFF00000
FFF00000
7FF80000
7FFC0000
7FFE00E0
3FFF83E0
3FFFFFF0
1FFFFFF8
0FFFFFF8
07FFFFFC
03FFFFFC
01FFFFF8
00FFFFF0
001FFFC0
0003FC00
ENDCHAR
STARTCHAR d
ENCODING 100
SWIDTH 573 0
DWIDTH 43 0
BBX 35 54 3 -1
BITMAP
000000FFE0
000000FFE0
000000FFE0
000000FFE0
000000FFE0
000000FFE0
000000FFE0
000000FFE0
000000FFE0
000000FFE0
000000FFE0
000000FFE0
000000FFE0
000000FFE0
000000FFE0
000FE0FFE0
007FFCFFE0
00FFFEFFE0
03FFFFFFE0
07FFFFFFE0
0FFFFFFFE0
0FFFFFFFE0
1FFFFFFFE0
3FFFFFFFE0
3FFF07FFE0
7FFC01FFE0
7FF800FFE0
7FF800FFE0
7FF000FFE0
FFF000FFE0
FFF000FFE0
FFE000FFE0
FFE000FFE0
FFE000FFE0
FFE000FFE0
FFE000FFE0
FFE000FFE0
FFE000FFE0
FFF000FFE0
FFF000FFE0
FFF000FFE0
7FF800FFE0
7FF801FFE0
7FFC03FFE0
3FFF0FFFE0
3FFFFFFFE0
1FFFFFFFE0
1FFFFFFFE0
0FFFFFFFE0
07FFFFFFE0
03FFFF3FE0
01FFFC3FE0
007FF83FE0
000FC00000
ENDCHAR
STARTCHAR e
ENCODING 101
SWIDTH 518 0
DWIDTH 39 0
BBX 33 39 3 -1
BITMAP
0007FC0000
003FFF8000
00FFFFC000
01FFFFF000
03FFFFF800
07FFFFF800
0FFFFFFC00
1FFFFFFE00
3FFF1FFE00
3FFC07FF00
7FF003FF00
7FF001FF00
7FE001FF80
FFE000FF80
FFC000FF80
FFFFFFFF80
FFFFFFFF80
FFFFFFFF80
FFFFFFFF80
FFFFFFFF80
FFFFFFFF80
FFFFFFFF80
FFFFFFFF80
FFE0000000
FFE0000000
FFE0000000
7FF0000000
7FF8000000
7FFC001000
3FFE007800
3FFFFFF800
1FFFFFFC00
0FFFFFFE00
07FFFFFE00
03FFFFFF00
01FFFFFE00
007FFFF800
001FFFC000
0003FC0000
ENDCHAR
STARTCHAR f
ENCODING 102
SWIDTH 341 0
DWIDTH 26 0
BBX 26 53 2 0
BITMAP
000FFF80
003FFFC0
007FFFC0
00FFFF80
01FFFF80
01FFFF80
03FFFF80
03FFFF00
07FFC300
07FF8000
07FF0000
07FF0000
07FF0000
07FF0000
07FF0000
07FF0000
FFFFFC00
FFFFFC00
FFFFFC00
FFFFFC00
FFFFFC00
FFFFFC00
FFFFFC00
FFFFFC00
07FF0000
07FF0000
07FF0000
07FF0000
07FF0000
07FF0000
07FF0000
07FF0000
07FF0000
07FF0000
07FF0000
07FF0000
07FF0000
07FF0000
07FF0000
07FF0000
07FF0000
07FF0000
07FF0000
07FF0000
07FF0000
07FF0000
07FF0000
07FF0000
07FF0000
07FF0000
07FF0000
07FF0000
07FF0000
ENDCHAR
STARTCHAR g
ENCODING 103
SWIDTH 534 0
DWIDTH 40 0
BBX 36 54 3 -16
BITMAP
001FF80000
00FFFFFFE0
03FFFFFFE0
07FFFFFFE0
0FFFFFFFE0
1FFFFFFFE0
3FFFFFFFE0
3FFE7FFFE0
7FF81FFFE0
7FF00FFC00
7FE007FC00
7FE007FC00
7FE007FE00
7FE007FE00
7FE007FE00
7FE007FC00
7FE007FC00
7FF00FFC00
3FF81FFC00
3FFFFFF800
1FFFFFF800
0FFFFFF000
07FFFFE000
07FFFFC000
0FFFFF0000
1FEFF80000
1FE0000000
3FC0000000
3FC0000000
7FC0000000
7FF0000000
7FFFFFE000
3FFFFFFE00
3FFFFFFF80
1FFFFFFFC0
0FFFFFFFE0
07FFFFFFE0
0FFFFFFFF0
3FFFFFFFF0
7FC007FFF0
7F80007FF0
FF80007FF0
FF80007FF0
FF80007FE0
FF8000FFE0
FFC001FFE0
FFF807FFC0
FFFFFFFF80
7FFFFFFF00
7FFFFFFE00
3FFFFFFC00
0FFFFFF000
03FFFF8000
003FF80000
ENDCHAR
STARTCHAR h
ENCODING 104
SWIDTH 571 0
DWIDTH 43 0
BBX 33 53 5 0
BITMAP
FFE0000000
FFE0000000
FFE0000000
FFE0000000
FFE0000000
FFE0000000
FFE0000000
FFE0000000
FFE0000000
FFE0000000
FFE0000000
FFE0000000
FFE0000000
FFE0000000
FFE0000000
FFE03FC000
FFE1FFF000
FFE3FFF800
FFEFFFFC00
FFDFFFFE00
FFFFFFFF00
FFFFFFFF00
FFFFFFFF00
FFFFFFFF80
FFFF1FFF80
FFFC07FF80
FFF003FF80
FFE003FF80
FFE003FF80
FFE003FF80
FFE003FF80
FFE003FF80
FFE003FF80
FFE003FF80
FFE003FF80
FFE003FF80
FFE003FF80
FFE003FF80
FFE003FF80
FFE003FF80
FFE003FF80
FFE003FF80
FFE003FF80
FFE003FF80
FFE003FF80
FFE003FF80
FFE003FF80
FFE003FF80
FFE003FF80
FFE003FF80
FFE003FF80
FFE003FF80
FFE003FF80
ENDCHAR
STARTCHAR i
ENCODING 105
SWIDTH 276 0
DWIDTH 21 0
BBX 13 54 4 0
BITMAP
1FC0
3FE0
7FF0
FFF0
FFF0
FFF8
FFF8
FFF0
7FF0
3FE0
1FC0
0000
0000
0000
0000
0000
0000
7FF0
7FF0
7FF0
7FF0
7FF0
7FF0
7FF0
7FF0
7FF0
7FF0
7FF0
7FF0
7FF0
7FF0
7FF0
7FF0
7FF0
7FF0
7FF0
7FF0
7FF0
7FF0
7FF0
7FF0
7FF0
7FF0
7FF0
7FF0
7FF0
7FF0
7FF0
7FF0
7FF0
7FF0
7FF0
7FF0
7FF0
ENDCHAR
STARTCHAR j
ENCODING 106
SWIDTH 278 0
DWIDTH 21 0
BBX 21 69 -4 -15
BITMAP
001FC0
003FE0
007FF0
007FF0
00FFF8
00FFF8
00FFF8
007FF0
007FF0
003FE0
001FC0
000000
000000
000000
000000
000000
000000
007FF0
007FF0
007FF0
007FF0
007FF0
007FF0
007FF0
007FF0
007FF0
007FF0
007FF0
007FF0
007FF0
007FF0
007FF0
007FF0
007FF0
007FF0
007FF0
007FF0
007FF0
007FF0
007FF0
007FF0
007FF0
007FF0
007FF0
007FF0
007FF0
007FF0
007FF0
007FF0
007FF0
007FF0
007FF0
007FF0
007FF0
007FF0
007FF0
007FF0
007FF0
00FFF0
01FFE0
3FFFE0
3FFFE0
7FFFC0
7FFFC0
7FFF80
7FFF00
FFFE00
FFF800
0F8000
ENDCHAR
STARTCHAR k
ENCODING 107
SWIDTH 548 0
DWIDTH 41 0
BBX 35 53 5 0
BITMAP
FFE0000000
FFE0000000
FFE0000000
FFE0000000
FFE0000000
FFE0000000
FFE0000000
FFE0000000
FFE0000000
FFE0000000
FFE0000000
FFE0000000
FFE0000000
FFE0000000
FFE0000000
FFE0000000
FFE003FFC0
FFE007FF80
FFE007FF00
FFE00FFF00
FFE01FFE00
FFE03FFC00
FFE07FF800
FFE07FF000
FFE0FFE000
FFE1FFC000
FFE3FFC000
FFE7FF8000
FFE7FF0000
FFEFFE0000
FFFFFC0000
FFFFFC0000
FFFFFE0000
FFFFFE0000
FFFFFF0000
FFFFFF0000
FFFFFF8000
FFFFFFC000
FFFFFFC000
FFFCFFE000
FFFCFFF000
FFF87FF000
FFF03FF800
FFE03FFC00
FFE01FFC00
FFE01FFE00
FFE00FFF00
FFE007FF00
FFE007FF80
FFE003FF80
FFE003FFC0
FFE001FFE0
FFE001FFE0
ENDCHAR
STARTCHAR l
ENCODING 108
SWIDTH 286 0
DWIDTH 21 0
BBX 15 54 5 -1
BITMAP
FFE0
FFE0
FFE0
FFE0
FFE0
FFE0
FFE0
FFE0
FFE0
FFE0
FFE0
FFE0
FFE0
FFE0
FFE0
FFE0
FFE0
FFE0
FFE0
FFE0
FFE0
FFE0
FFE0
FFE0
FFE0
FFE0
FFE0
FFE0
FFE0
FFE0
FFE0
FFE0
FFE0
FFE0
FFE0
FFE0
FFE0
FFE0
FFE0
FFE0
FFE0
FFE0
FFE0
FFE0
FFF0
FFFC
FFFC
7FFE
7FFE
7FFE
3FFE
1FFE
0FFE
03FC
ENDCHAR
STARTCHAR m
ENCODING 109
SWIDTH 857 0
DWIDTH 64 0
BBX 55 38 5 0
BITMAP
00007F8001FE00
FF81FFF007FF80
FF83FFF80FFFE0
FF8FFFFC3FFFF0
FF9FFFFE7FFFF0
FFFFFFFEFFFFF8
FFFFFFFFFFFFF8
FFFFFFFFFFFFFC
FFFFFFFFFFFFFC
FFFF3FFFFCFFFC
FFFC0FFFF03FFC
FFF007FFC01FFE
FFE007FF801FFE
FFE003FF800FFE
FFE003FF800FFE
FFE003FF800FFE
FFE003FF800FFE
FFE003FF800FFE
FFE003FF800FFE
FFE003FF800FFE
FFE003FF800FFE
FFE003FF800FFE
FFE003FF800FFE
FFE003FF800FFE
FFE003FF800FFE
FFE003FF800FFE
FFE003FF800FFE
FFE003FF800FFE
FFE003FF800FFE
FFE003FF800FFE
FFE003FF800FFE
FFE003FF800FFE
FFE003FF800FFE
FFE003FF800FFE
FFE003FF800FFE
FFE003FF800FFE
FFE003FF800FFE
FFE003FF800FFE
ENDCHAR
STARTCHAR n
ENCODING 110
SWIDTH 572 0
DWIDTH 43 0
BBX 33 38 5 0
BITMAP
00003FC000
FF81FFF000
FF83FFF800
FF8FFFFC00
FF9FFFFE00
FFFFFFFF00
FFFFFFFF00
FFFFFFFF00
FFFFFFFF80
FFFF1FFF80
FFFC07FF80
FFF003FF80
FFE003FF80
FFE003FF80
FFE003FF80
FFE003FF80
FFE003FF80
FFE003FF80
FFE003FF80
FFE003FF80
FFE003FF80
FFE003FF80
FFE003FF80
FFE003FF80
FFE003FF80
FFE003FF80
FFE003FF80
FFE003FF80
FFE003FF80
FFE003FF80
FFE003FF80
FFE003FF80
FFE003FF80
FFE003FF80
FFE003FF80
FFE003FF80
FFE003FF80
FFE003FF80
ENDCHAR
STARTCHAR o
ENCODING 111
SWIDTH 555 0
DWIDTH 42 0
BBX 36 39 3 -1
BITMAP
0007FE0000
003FFF8000
00FFFFE000
01FFFFF800
03FFFFFC00
07FFFFFE00
0FFFFFFF00
1FFFFFFF80
3FFFFFFF80
3FFE07FFC0
7FFC03FFC0
7FF801FFE0
7FF001FFE0
FFF000FFE0
FFF000FFE0
FFE000FFF0
FFE000FFF0
FFE0007FF0
FFE0007FF0
FFE0007FF0
FFE0007FF0
FFE0007FF0
FFE000FFF0
FFE000FFF0
FFF000FFE0
FFF000FFE0
7FF001FFE0
7FF801FFE0
7FFC03FFC0
3FFE0FFFC0
1FFFFFFF80
1FFFFFFF00
0FFFFFFF00
07FFFFFE00
03FFFFFC00
01FFFFF000
007FFFE000
001FFF8000
0003FC0000
ENDCHAR
STARTCHAR p
ENCODING 112
SWIDTH 573 0
DWIDTH 43 0
BBX 35 52 5 -14
BITMAP
00007F8000
FF83FFE000
FF87FFF800
FF9FFFFC00
FFFFFFFE00
FFFFFFFE00
FFFFFFFF00
FFFFFFFF80
FFFFFFFF80
FFFE0FFFC0
FFF807FFC0
FFF003FFC0
FFE001FFC0
FFE001FFE0
FFE001FFE0
FFE001FFE0
FFE001FFE0
FFE000FFE0
FFE000FFE0
FFE000FFE0
FFE000FFE0
FFE000FFE0
FFE001FFE0
FFE001FFE0
FFE001FFE0
FFE001FFC0
FFE003FFC0
FFE007FFC0
FFF007FF80
FFFC1FFF80
FFFFFFFF00
FFFFFFFF00
FFFFFFFE00
FFFFFFFC00
FFFFFFF800
FFFFFFF000
FFEFFFE000
FFE3FF8000
FFE0FC0000
FFE0000000
FFE0000000
FFE0000000
FFE0000000
FFE0000000
FFE0000000
FFE0000000
FFE0000000
FFE0000000
FFE0000000
FFE0000000
FFE0000000
FFE0000000
ENDCHAR
STARTCHAR q
ENCODING 113
SWIDTH 573 0
DWIDTH 43 0
BBX 35 52 3 -14
BITMAP
000FE00000
007FFC3FE0
00FFFE3FE0
03FFFF3FE0
07FFFFFFE0
0FFFFFFFE0
0FFFFFFFE0
1FFFFFFFE0
3FFFFFFFE0
3FFF07FFE0
7FFC01FFE0
7FF800FFE0
7FF800FFE0
7FF000FFE0
FFF000FFE0
FFF000FFE0
FFE000FFE0
FFE000FFE0
FFE000FFE0
FFE000FFE0
FFE000FFE0
FFE000FFE0
FFE000FFE0
FFF000FFE0
FFF000FFE0
FFF000FFE0
7FF800FFE0
7FF801FFE0
7FFC03FFE0
3FFF0FFFE0
3FFFFFFFE0
1FFFFFFFE0
1FFFFFFFE0
0FFFFFFFE0
07FFFFFFE0
03FFFFFFE0
01FFFCFFE0
007FF8FFE0
000FC0FFE0
000000FFE0
000000FFE0
000000FFE0
000000FFE0
000000FFE0
000000FFE0
000000FFE0
000000FFE0
000000FFE0
000000FFE0
000000FFE0
000000FFE0
000000FFE0
ENDCHAR
STARTCHAR r
ENCODING 114
SWIDTH 398 0
DWIDTH 30 0
BBX 25 38 5 0
BITMAP
00007F80
FF81FF80
FF83FF80
FF87FF00
FF8FFF00
FF9FFF00
FFFFFF00
FFFFFF00
FFFFFE00
FFFFFE00
FFFF0000
FFFC0000
FFF80000
FFF00000
FFF00000
FFE00000
FFE00000
FFE00000
FFE00000
FFE00000
FFE00000
FFE00000
FFE00000
FFE00000
FFE00000
FFE00000
FFE00000
FFE00000
FFE00000
FFE00000
FFE00000
FFE00000
FFE00000
FFE00000
FFE00000
FFE00000
FFE00000
FFE00000
ENDCHAR
STARTCHAR s
ENCODING 115
SWIDTH 443 0
DWIDTH 33 0
BBX 29 39 2 -1
BITMAP
001FF800
00FFFF00
03FFFFC0
07FFFFE0
0FFFFFF8
1FFFFFF0
1FFFFFF0
3FFFFFE0
3FFC1FC0
3FF00780
3FF00180
3FF00000
3FF00000
3FFC0000
3FFF0000
3FFFC000
1FFFF800
0FFFFE00
07FFFF80
03FFFFC0
01FFFFE0
007FFFF0
001FFFF0
0003FFF8
0000FFF8
00003FF8
00001FF8
08001FF8
1E001FF8
1F803FF8
3FF0FFF8
7FFFFFF0
FFFFFFF0
FFFFFFE0
7FFFFFC0
3FFFFF80
0FFFFF00
03FFFC00
003FC000
ENDCHAR
STARTCHAR t
ENCODING 116
SWIDTH 383 0
DWIDTH 29 0
BBX 26 48 1 -1
BITMAP
01FF0000
01FF0000
01FF0000
01FF0000
01FF0000
01FF0000
03FF0000
03FF0000
03FF0000
03FF0000
FFFFFF80
FFFFFF80
FFFFFF80
FFFFFF80
FFFFFF80
FFFFFF80
FFFFFF80
FFFFFF80
07FF0000
07FF0000
07FF0000
07FF0000
07FF0000
07FF0000
07FF0000
07FF0000
07FF0000
07FF0000
07FF0000
07FF0000
07FF0000
07FF0000
07FF0000
07FF0000
07FF0000
07FF8000
03FF8000
03FF8000
03FFC000
03FFFF80
03FFFF80
01FFFF80
01FFFFC0
00FFFFC0
007FFFC0
003FFFC0
001FFFC0
0003FC00
ENDCHAR
STARTCHAR u
ENCODING 117
SWIDTH 568 0
DWIDTH 43 0
BBX 34 38 4 -1
BITMAP
FFF001FFC0
FFF001FFC0
FFF001FFC0
FFF001FFC0
FFF001FFC0
FFF001FFC0
FFF001FFC0
FFF001FFC0
FFF001FFC0
FFF001FFC0
FFF001FFC0
FFF001FFC0
FFF001FFC0
FFF001FFC0
FFF001FFC0
FFF001FFC0
FFF001FFC0
FFF001FFC0
FFF001FFC0
FFF001FFC0
FFF001FFC0
FFF001FFC0
FFF001FFC0
FFF001FFC0
7FF001FFC0
7FF003FFC0
7FF007FFC0
7FF80FFFC0
7FFFFFFFC0
7FFFFFFFC0
3FFFFFFFC0
3FFFFFFFC0
3FFFFEFFC0
1FFFFCFFC0
0FFFF8FFC0
07FFF07FC0
03FFC07FC0
00FE000000
ENDCHAR
STARTCHAR v
ENCODING 118
SWIDTH 523 0
DWIDTH 39 0
BBX 37 37 1 0
BITMAP
FFE0001FF8
FFE0003FF8
7FF0003FF0
7FF0003FF0
7FF0007FF0
3FF8007FE0
3FF8007FE0
3FF8007FE0
1FF800FFC0
1FFC00FFC0
1FFC00FFC0
0FFC01FFC0
0FFC01FF80
07FE01FF80
07FE01FF80
07FE03FF00
03FF03FF00
03FF03FF00
03FF03FE00
01FF07FE00
01FF87FE00
01FF87FC00
00FF87FC00
00FF8FFC00
00FFCFF800
007FCFF800
007FCFF800
007FDFF000
003FFFF000
003FFFF000
003FFFE000
001FFFE000
001FFFE000
001FFFC000
000FFFC000
000FFFC000
000FFF8000
ENDCHAR
STARTCHAR w
ENCODING 119
SWIDTH 776 0
DWIDTH 58 0
BBX 54 37 2 0
BITMAP
FFE003FF000FFC
FFE003FF800FFC
FFE003FF800FFC
7FF003FF801FFC
7FF007FF801FF8
7FF007FFC01FF8
7FF007FFC01FF8
3FF007FFC01FF8
3FF80FFFC03FF0
3FF80FFFC03FF0
3FF80FFFE03FF0
1FF80FFFE03FF0
1FF80FFFE03FE0
1FFC1FCFE07FE0
1FFC1FCFF07FE0
0FFC1FCFF07FE0
0FFC1FCFF07FC0
0FFC3FCFF07FC0
0FFE3FCFF8FFC0
07FE3FC7F8FFC0
07FE3F87F8FF80
07FE7F87F8FF80
07FE7F87FCFF80
03FE7F83FCFF80
03FE7F03FCFF00
03FF7F03FDFF00
03FF7F03FDFF00
01FFFF03FFFF00
01FFFF01FFFF00
01FFFE01FFFE00
01FFFE01FFFE00
00FFFE01FFFE00
00FFFE00FFFE00
00FFFC00FFFC00
00FFFC00FFFC00
007FFC00FFFC00
007FFC00FFFC00
ENDCHAR
STARTCHAR x
ENCODING 120
SWIDTH 514 0
DWIDTH 39 0
BBX 36 37 1 0
BITMAP
7FF800FFE0
3FFC00FFE0
3FFC01FFC0
1FFE01FFC0
0FFE03FF80
0FFF03FF80
07FF03FF00
07FF87FF00
03FF87FE00
01FFCFFC00
01FFCFFC00
00FFEFF800
00FFFFF800
007FFFF000
003FFFF000
003FFFE000
001FFFC000
001FFFC000
001FFF8000
003FFF8000
003FFFC000
007FFFE000
007FFFE000
00FFFFF000
01FFBFF800
01FFBFF800
03FF1FFC00
03FF1FFC00
07FE0FFE00
0FFE0FFF00
0FFE07FF00
1FFC07FF80
1FFC03FFC0
3FF801FFC0
3FF801FFE0
7FF000FFF0
FFF000FFF0
ENDCHAR
STARTCHAR y
ENCODING 121
SWIDTH 521 0
DWIDTH 39 0
BBX 37 52 1 -15
BITMAP
FFE0003FF8
7FF0003FF8
7FF0003FF0
7FF0003FF0
3FF8007FF0
3FF8007FE0
1FF8007FE0
1FFC00FFE0
1FFC00FFC0
0FFC00FFC0
0FFE00FFC0
07FE01FF80
07FE01FF80
07FF01FF00
03FF03FF00
03FF03FF00
03FF83FE00
01FF83FE00
01FF87FE00
00FF87FC00
00FFC7FC00
00FFC7FC00
007FCFF800
007FCFF800
003FEFF800
003FEFF000
003FFFF000
001FFFF000
001FFFE000
000FFFE000
000FFFE000
000FFFC000
0007FFC000
0007FFC000
0003FF8000
0003FF8000
0003FF8000
0003FF0000
0007FF0000
0007FE0000
000FFE0000
001FFE0000
003FFC0000
0FFFF80000
0FFFF80000
0FFFF00000
0FFFF00000
1FFFE00000
1FFFC00000
1FFF000000
1FFC000000
01C0000000
ENDCHAR
STARTCHAR z
ENCODING 122
SWIDTH 460 0
DWIDTH 35 0
BBX 30 37 3 0
BITMAP
3FFFFFF8
3FFFFFF8
3FFFFFF8
3FFFFFF8
3FFFFFF8
3FFFFFF8
3FFFFFF8
3FFFFFF0
0001FFE0
0001FFE0
0003FFC0
0007FF80
0007FF00
000FFF00
001FFE00
001FFC00
003FFC00
007FF800
00FFF000
00FFF000
01FFE000
03FFC000
03FFC000
07FF8000
0FFF0000
0FFF0000
1FFE0000
3FFC0000
3FFFFFFC
7FFFFFFC
FFFFFFFC
FFFFFFFC
FFFFFFFC
FFFFFFFC
FFFFFFFC
FFFFFFFC
FFFFFFFC
ENDCHAR
STARTCHAR braceleft
ENCODING 123
SWIDTH 344 0
DWIDTH 26 0
BBX 20 64 2 -11
BITMAP
001FF0
007FF0
00FFF0
01FFF0
01FFF0
01FFF0
03FF00
03FE00
03FE00
03FE00
03FE00
03FE00
03FE00
03FE00
03FE00
03FE00
03FE00
03FE00
01FE00
01FE00
01FE00
01FE00
01FE00
01FE00
01FE00
03FE00
03FE00
07FE00
1FFC00
FFFC00
FFF800
FFE000
FFC000
FFF000
FFFC00
3FFC00
07FE00
03FE00
03FE00
01FE00
01FE00
01FE00
01FE00
01FE00
01FE00
01FE00
03FE00
03FE00
03FE00
03FE00
03FE00
03FE00
03FE00
03FE00
03FE00
03FE00
03FE00
03FF00
03FFE0
01FFF0
01FFF0
00FFF0
007FF0
003FF0
ENDCHAR
STARTCHAR bar
ENCODING 124
SWIDTH 268 0
DWIDTH 20 0
BBX 8 75 6 -19
BITMAP
FF
FF
FF
FF
FF
FF
FF
FF
FF
FF
FF
FF
FF
FF
FF
FF
FF
FF
FF
FF
FF
FF
FF
FF
FF
FF
FF
FF
FF
FF
FF
FF
FF
FF
FF
FF
FF
FF
FF
FF
FF
FF
FF
FF
FF
FF
FF
FF
FF
FF
FF
FF
FF
FF
FF
FF
FF
FF
FF
FF
FF
FF
FF
FF
FF
FF
FF
FF
FF
FF
FF
FF
FF
FF
FF
ENDCHAR
STARTCHAR braceright
ENCODING 125
SWIDTH 344 0
DWIDTH 26 0
BBX 20 64 3 -11
BITMAP
FFC000
FFF000
FFF800
FFF800
FFFC00
FFFC00
07FC00
07FE00
03FE00
03FE00
03FE00
03FE00
03FE00
03FE00
03FE00
03FE00
03FC00
03FC00
03FC00
03FC00
03FC00
03FC00
03FC00
03FC00
03FC00
03FC00
03FE00
03FF00
03FFC0
01FFF0
00FFF0
003FF0
003FF0
00FFF0
01FFF0
01FFE0
03FF00
03FE00
03FE00
03FC00
03FC00
03FC00
03FC00
03FC00
03FC00
03FC00
03FC00
03FC00
03FE00
03FE00
03FE00
03FE00
03FE00
03FE00
03FE00
03FE00
07FE00
07FC00
3FFC00
FFFC00
FFFC00
FFF800
FFF000
FFC000
ENDCHAR
STARTCHAR asciitilde
ENCODING 126
SWIDTH 528 0
DWIDTH 40 0
BBX 34 14 3 18
BITMAP
0020000000
03FE000000
0FFF800C00
1FFFC00E00
3FFFE01F00
7FFFF83F80
FFFFFFFFC0
FFFFFFFFC0
FF8FFFFF80
7E03FFFF00
3C01FFFE00
1C00FFFC00
00003FF000
00000FC000
ENDCHAR
ENDFONT
